<svg xmlns="http://www.w3.org/2000/svg" width="52" height="52" viewBox="0 0 52 52">
    <g fill="none" fill-rule="evenodd" stroke="#02B7FF" stroke-linecap="round" stroke-linejoin="round" stroke-width="2">
        <path d="M51 7.82a6.82 6.82 0 0 1-6.818 6.818 6.816 6.816 0 0 1-6.816-6.818A6.811 6.811 0 0 1 44.182 1 6.815 6.815 0 0 1 51 7.82zM51 44.18A6.815 6.815 0 0 1 44.182 51a6.811 6.811 0 0 1-6.816-6.82 6.813 6.813 0 0 1 6.816-6.817A6.816 6.816 0 0 1 51 44.18zM14.638 25.996a6.818 6.818 0 0 1-6.822 6.823A6.817 6.817 0 0 1 1 25.996a6.82 6.82 0 0 1 13.639 0zM38.07 10.835L13.94 22.989M13.94 29.008l24.129 12.154"/>
    </g>
</svg>
