<svg xmlns="http://www.w3.org/2000/svg" width="46" height="51" viewBox="0 0 46 51">
    <g fill="none" fill-rule="evenodd" stroke="#02B7FF" stroke-linecap="round" stroke-linejoin="round" stroke-width="2">
        <path d="M21.048 25.995c-.348 0-.635-.143-.809-.4-.15-.219-.272-.62-.01-1.26l2.275-5.639c.35-.859 1.131-2.04 1.787-2.694l14.4-14.4c.383-.39.907-.602 1.454-.602.551 0 1.068.211 1.457.602l2.774 2.774a2.05 2.05 0 0 1 0 2.911L29.98 21.69c-.656.652-1.834 1.445-2.685 1.802l-5.549 2.344c-.25.104-.487.16-.698.16z"/>
        <path d="M38.037 21.606v24.591a3.715 3.715 0 0 1-3.704 3.704H4.703A3.715 3.715 0 0 1 1 46.197V7.308a3.715 3.715 0 0 1 3.704-3.703h21.714"/>
    </g>
</svg>
