<svg xmlns="http://www.w3.org/2000/svg" xmlns:xlink="http://www.w3.org/1999/xlink" width="88" height="20" viewBox="0 0 88 20">
    <defs>
        <path id="a" d="M.054 14.429h10.102V.054H.054z"/>
    </defs>
    <g fill="none" fill-rule="evenodd">
        <path fill="#028AFF" d="M10.383 19.202h-.836c-.715 0-1.294-.58-1.294-1.294-.917.97-2.086 1.456-3.506 1.456-1.385 0-2.49-.413-3.318-1.24C.476 17.17 0 15.84 0 14.131V6.918a1.767 1.767 0 0 1 3.533 0v6.729c0 .88.249 1.546.746 1.995.41.378.924.567 1.546.567.64 0 1.165-.19 1.574-.567.497-.449.746-1.114.746-1.995v-6.73a1.766 1.766 0 0 1 3.533 0v10.99c0 .716-.58 1.295-1.295 1.295"/>
        <g transform="translate(14.159 4.935)">
            <mask id="b" fill="#fff">
                <use xlink:href="#a"/>
            </mask>
            <path fill="#028AFF" d="M9.674 11.221c.78.774.564 2.084-.422 2.57-.863.425-1.835.638-2.914.638-1.709 0-3.102-.486-4.18-1.457C.755 11.714.054 9.8.054 7.228c0-2.571.701-4.477 2.104-5.718C3.236.54 4.629.054 6.338.054c1.088 0 2.062.21 2.923.627a1.588 1.588 0 0 1 .432 2.549l-.084.084c-.512.514-1.298.599-1.932.245a2.674 2.674 0 0 0-1.322-.35c-.825 0-1.492.315-2.002.944-.511.63-.766 1.655-.766 3.075 0 1.438.255 2.472.766 3.101.51.63 1.177.944 2.002.944.463 0 .904-.116 1.322-.35.635-.354 1.423-.271 1.939.24l.058.058z" mask="url(#b)"/>
        </g>
        <path fill="#028AFF" d="M36.988 19.202c-.975 0-1.766-.79-1.766-1.766v-6.81c0-.863-.24-1.51-.72-1.942-.409-.36-.924-.54-1.546-.54s-1.128.18-1.518.54c-.48.45-.72 1.097-.72 1.942v6.81a1.766 1.766 0 1 1-3.533 0V1.766a1.767 1.767 0 0 1 3.533 0v4.68c.95-.971 2.07-1.457 3.36-1.457 1.487 0 2.652.486 3.494 1.457.788.917 1.183 2.14 1.183 3.668v7.322c0 .975-.791 1.766-1.767 1.766M48.976 14.024a.755.755 0 0 0-.755-.755h-2.007c-1.306 0-1.958.53-1.958 1.591 0 1.079.67 1.618 2.011 1.618 1.198 0 1.993-.296 2.387-.89.214-.323.322-.845.322-1.564m2.32 5.178h-.999c-.67 0-1.213-.543-1.213-1.213-.9.899-2.05 1.348-3.452 1.348-1.583 0-2.77-.404-3.56-1.214-.792-.809-1.187-1.87-1.187-3.182 0-1.187.407-2.162 1.223-2.926.815-.764 2.002-1.146 3.561-1.146h2.606a.701.701 0 0 0 .7-.702c0-1.474-.868-2.211-2.606-2.211-.704 0-1.318.15-1.84.452-.593.34-1.346.219-1.835-.26-.747-.731-.587-1.99.335-2.483.198-.106.4-.196.607-.271.719-.27 1.68-.405 2.886-.405 3.991 0 5.987 1.655 5.987 4.963v8.037c0 .67-.544 1.213-1.214 1.213M73.194 14.78c0 1.492-.576 2.642-1.726 3.451-1.079.755-2.49 1.133-4.234 1.133-1.313 0-2.383-.117-3.21-.35-.372-.11-.73-.251-1.073-.425-.968-.49-1.153-1.799-.386-2.566a1.62 1.62 0 0 1 1.92-.27c.762.412 1.696.617 2.803.617 1.654 0 2.48-.485 2.48-1.456 0-.773-.494-1.204-1.482-1.294l-2.212-.216c-2.733-.27-4.1-1.582-4.1-3.938 0-1.402.549-2.517 1.646-3.344 1.007-.755 2.265-1.133 3.776-1.133 1.375 0 2.547.179 3.518.536 1.011.372 1.306 1.659.549 2.425l-.05.05c-.429.435-1.079.54-1.638.295-.64-.28-1.45-.42-2.433-.42-1.331 0-1.996.45-1.996 1.349 0 .719.485 1.123 1.456 1.213l2.212.216c2.787.27 4.18 1.645 4.18 4.126M82.622 10.869c.77 0 1.306-.795.988-1.497l-.006-.014c-.432-.97-1.214-1.456-2.346-1.456-1.133 0-1.915.485-2.347 1.456l-.006.013c-.318.703.217 1.498.989 1.498h2.728zm3.193 2.4h-7.227c0 .935.274 1.69.822 2.265.549.576 1.299.863 2.252.863.842 0 1.602-.203 2.278-.608a1.516 1.516 0 0 1 1.843.202c.69.672.58 1.81-.225 2.34a5.746 5.746 0 0 1-.848.467c-.846.377-1.87.566-3.075.566-4.333 0-6.5-2.4-6.5-7.2 0-2.248.567-4.02 1.7-5.314 1.096-1.24 2.57-1.86 4.423-1.86 1.905 0 3.415.638 4.53 1.914 1.061 1.223 1.592 2.823 1.592 4.8 0 .865-.7 1.565-1.565 1.565zM57.323 19.364c-.976 0-1.767-.669-1.767-1.494v-7.544c0-.825.791-1.494 1.767-1.494.975 0 1.766.669 1.766 1.494v7.544c0 .825-.79 1.494-1.766 1.494M59.09 4.921a1.766 1.766 0 1 1-3.534 0 1.766 1.766 0 0 1 3.533 0"/>
    </g>
</svg>
