<svg xmlns="http://www.w3.org/2000/svg" width="32" height="38" viewBox="0 0 32 38">
    <g fill="none" fill-rule="evenodd" stroke="#02B7FF" stroke-linecap="round" stroke-linejoin="round" stroke-width="2">
        <path d="M24.412 3.248C22.948 1.526 20.35 1 16.9 1H6.594c-.705 0-1.306.13-1.414.825L1.01 28.38c-.082.52.321 1.12.85 1.12h4.922c.704 0 1.306-.832 1.415-1.53l1.123-6.695c.108-.698.71-.776 1.414-.776h3.261c6.79 0 10.708-3.688 11.731-10.198.461-2.846.02-5.487-1.314-7.054z"/>
        <path d="M7.307 29.594l-.673 5.16c-.078.49.3 2.246.8 2.246h4.628c.664 0 1.228-1.713 1.33-2.368l1.056-6.85c.103-.655.67-1.282 1.332-1.282h3.067c6.385 0 10.071-3.644 11.033-9.768.433-2.679.018-5.453-1.236-6.926-.588-.695-1.373-1.22-2.334-1.66M18.951 10.199c-.583 3.819-3.498 3.819-6.32 3.819h-1.607l1.127-7.133a.887.887 0 0 1 .876-.748h.736c1.922 0 3.734 0 4.671 1.096.559.652.732 1.624.517 2.966"/>
    </g>
</svg>
