<svg xmlns="http://www.w3.org/2000/svg" width="25" height="27" viewBox="0 0 25 27">
    <g fill="none" fill-rule="evenodd" stroke="#02B7FF" stroke-linecap="round" stroke-linejoin="round">
        <path d="M13.137 7.182c.344-1.541.575-5.777 3.277-6.146 2.354-.321 4.082 1.575 3.492 3.876a3.482 3.482 0 0 1-3.372 2.614v.005H9.74v-.005a3.482 3.482 0 0 1-3.421-2.832c-.667-3.53 4.614-4.998 5.948-1.663.6 1.502.673 3.263.87 4.151zM22.107 13.012v11.64c0 .744-.555 1.348-1.25 1.348H4.633c-.695 0-1.25-.604-1.25-1.348v-11.64M23.198 7.755c.694 0 1.248.612 1.248 1.356v2.278c0 .744-.554 1.348-1.248 1.348H2.292c-.696 0-1.251-.604-1.251-1.348V9.111c0-.744.555-1.356 1.251-1.356h20.906zM12.744 12.901v12.936"/>
    </g>
</svg>
