<!-- Generated by IcoMoon.io -->
<svg version="1.1" xmlns="http://www.w3.org/2000/svg" width="32" height="32" viewBox="0 0 32 32">
<title>star</title>
<path fill="#02b7ff" d="M15.8 2.25c0.1-0.25 0.3-0.25 0.45 0l4.15 8.45c0.1 0.25 0.45 0.5 0.7 0.5l9.3 1.35c0.25 0.050 0.35 0.25 0.15 0.4l-6.75 6.6c-0.2 0.2-0.3 0.55-0.25 0.85l1.6 9.3c0.050 0.25-0.1 0.4-0.35 0.25l-8.35-4.4c-0.25-0.15-0.65-0.15-0.9 0l-8.35 4.4c-0.25 0.15-0.4 0-0.35-0.25l1.6-9.3c0.050-0.25-0.1-0.65-0.25-0.85l-6.75-6.55c-0.2-0.2-0.15-0.4 0.15-0.4l9.3-1.35c0.25-0.050 0.6-0.25 0.7-0.5l4.2-8.5z"></path>
</svg>
